<?xml version="1.0" encoding="UTF-8"?>
<svg xmlns="http://www.w3.org/2000/svg" xmlns:xlink="http://www.w3.org/1999/xlink" width="32px" height="45px" viewBox="0 0 32 44" version="1.1">
<g id="surface1">
<path style=" stroke:none;fill-rule:nonzero;fill:rgb(67.450982%,38.039216%,85.490197%);fill-opacity:1;" d="M 26.617188 0.046875 C 26.492188 0.078125 26.339844 0.160156 26.234375 0.253906 L 26.136719 0.347656 L 26.136719 0.539062 C 26.136719 0.761719 26.175781 0.867188 26.328125 1.023438 L 26.429688 1.128906 L 26.429688 1.351562 C 26.425781 1.589844 26.402344 1.703125 26.308594 1.910156 C 26.246094 2.039062 26.246094 2.039062 26.125 2.054688 C 26.058594 2.0625 25.960938 2.078125 25.910156 2.09375 C 25.859375 2.105469 25.773438 2.121094 25.71875 2.121094 C 25.667969 2.125 25.460938 2.144531 25.261719 2.167969 C 25.054688 2.1875 24.601562 2.210938 24.230469 2.21875 C 23.480469 2.230469 23.433594 2.242188 23.355469 2.398438 C 23.269531 2.578125 23.34375 2.925781 23.507812 3.085938 C 23.542969 3.125 23.578125 3.175781 23.582031 3.195312 C 23.585938 3.222656 23.605469 3.246094 23.625 3.253906 C 23.644531 3.257812 23.652344 3.253906 23.640625 3.238281 C 23.609375 3.1875 23.640625 3.210938 23.714844 3.285156 C 23.75 3.324219 23.757812 3.34375 23.730469 3.320312 C 23.6875 3.285156 23.675781 3.285156 23.667969 3.308594 C 23.660156 3.328125 23.597656 3.375 23.527344 3.410156 C 23.109375 3.644531 22.652344 4.046875 22.34375 4.453125 C 22.09375 4.789062 21.980469 4.976562 21.675781 5.582031 C 21.46875 5.984375 21.378906 6.144531 21.28125 6.257812 C 21.175781 6.371094 21.0625 6.566406 20.789062 7.09375 C 20.410156 7.824219 20.234375 8.199219 20.128906 8.550781 C 20.089844 8.667969 20.039062 8.808594 20.015625 8.859375 C 19.988281 8.910156 19.953125 9.011719 19.9375 9.085938 C 19.917969 9.183594 19.839844 9.355469 19.683594 9.636719 C 19.390625 10.175781 19.082031 10.707031 18.84375 11.089844 C 18.675781 11.359375 18.644531 11.402344 18.523438 11.472656 C 18.367188 11.570312 18.195312 11.726562 18.082031 11.871094 C 17.992188 11.992188 17.8125 12.328125 17.738281 12.515625 C 17.710938 12.585938 17.65625 12.671875 17.621094 12.710938 C 17.574219 12.75 17.515625 12.855469 17.460938 12.992188 C 17.386719 13.179688 17.351562 13.234375 17.226562 13.363281 C 17.148438 13.445312 17 13.613281 16.902344 13.742188 C 16.804688 13.867188 16.691406 13.992188 16.648438 14.019531 C 16.585938 14.054688 16.535156 14.121094 16.4375 14.304688 C 16.21875 14.710938 15.957031 14.9375 15.253906 15.332031 C 15.089844 15.421875 14.875 15.554688 14.777344 15.621094 C 14.675781 15.6875 14.570312 15.746094 14.539062 15.757812 C 14.511719 15.765625 14.386719 15.828125 14.261719 15.894531 C 13.746094 16.175781 13.164062 16.414062 12.773438 16.5 C 12.542969 16.550781 12.023438 16.695312 11.765625 16.78125 C 11.574219 16.84375 11.027344 17.121094 10.796875 17.277344 C 10.691406 17.34375 10.558594 17.433594 10.5 17.472656 C 10.316406 17.59375 10.15625 17.773438 9.902344 18.144531 C 9.695312 18.449219 9.625 18.53125 9.480469 18.644531 C 9.179688 18.882812 9.140625 18.90625 9.046875 18.90625 C 8.851562 18.90625 8.550781 19.011719 8.230469 19.191406 C 8.058594 19.289062 7.851562 19.355469 7.351562 19.480469 C 7.253906 19.503906 7.039062 19.582031 6.875 19.648438 C 6.710938 19.71875 6.507812 19.796875 6.417969 19.824219 C 6.332031 19.847656 6.226562 19.890625 6.1875 19.914062 C 6.148438 19.9375 6.023438 19.992188 5.910156 20.035156 C 5.632812 20.144531 5.519531 20.222656 5.203125 20.535156 C 5.035156 20.695312 4.851562 20.847656 4.730469 20.929688 C 4.609375 21.003906 4.480469 21.109375 4.410156 21.1875 C 4.253906 21.371094 3.859375 21.753906 3.777344 21.804688 C 3.683594 21.863281 3.472656 22.292969 3.300781 22.769531 C 3.128906 23.238281 2.875 23.894531 2.816406 24.019531 C 2.757812 24.148438 2.625 24.757812 2.625 24.902344 C 2.625 24.960938 2.613281 25.167969 2.597656 25.359375 C 2.574219 25.636719 2.574219 25.777344 2.601562 26.078125 C 2.628906 26.371094 2.628906 26.496094 2.605469 26.703125 C 2.542969 27.226562 2.394531 27.734375 2.152344 28.226562 C 1.972656 28.59375 1.878906 28.746094 1.40625 29.480469 C 0.835938 30.367188 0.683594 30.648438 0.464844 31.214844 C 0.246094 31.773438 0.0976562 32.457031 0.0546875 33.042969 C 0.046875 33.175781 0.03125 33.296875 0.0195312 33.3125 C 0.00390625 33.332031 0 33.585938 0.0078125 33.976562 C 0.015625 34.496094 0.0273438 34.667969 0.0703125 34.898438 C 0.273438 36.003906 0.8125 36.820312 1.734375 37.417969 L 1.898438 37.523438 L 1.886719 37.777344 C 1.871094 38.042969 1.816406 38.332031 1.699219 38.734375 C 1.570312 39.195312 1.558594 39.496094 1.664062 39.808594 C 1.710938 39.964844 1.710938 39.96875 1.671875 40.199219 C 1.648438 40.328125 1.621094 40.574219 1.609375 40.742188 C 1.597656 40.914062 1.578125 41.097656 1.5625 41.15625 C 1.550781 41.210938 1.539062 41.382812 1.535156 41.539062 C 1.535156 41.746094 1.527344 41.839844 1.503906 41.890625 C 1.449219 41.984375 1.433594 42.199219 1.464844 42.359375 C 1.558594 42.855469 2.035156 43.203125 2.578125 43.164062 C 3.023438 43.136719 3.355469 42.890625 3.53125 42.460938 C 3.65625 42.160156 3.667969 41.878906 3.570312 41.6875 C 3.542969 41.640625 3.503906 41.507812 3.476562 41.394531 C 3.449219 41.28125 3.402344 41.101562 3.371094 40.996094 C 3.265625 40.652344 3.296875 40.386719 3.480469 40.132812 C 3.769531 39.722656 3.808594 39.660156 3.867188 39.472656 C 3.929688 39.273438 3.9375 39.152344 3.878906 39.050781 C 3.847656 39 3.765625 38.21875 3.734375 37.714844 C 3.710938 37.277344 3.738281 36.632812 3.785156 36.585938 C 3.800781 36.574219 3.808594 36.425781 3.808594 36.21875 C 3.808594 35.832031 3.855469 35.339844 3.925781 35.015625 C 3.949219 34.894531 3.980469 34.699219 3.996094 34.578125 C 4.089844 33.738281 4.09375 33.726562 4.191406 33.449219 C 4.320312 33.070312 4.359375 32.988281 4.589844 32.632812 C 4.8125 32.277344 4.9375 32.042969 4.957031 31.929688 C 4.964844 31.886719 4.992188 31.832031 5.015625 31.808594 C 5.0625 31.769531 5.332031 31.164062 5.535156 30.652344 C 5.566406 30.578125 5.664062 30.421875 5.753906 30.308594 C 5.914062 30.101562 6.09375 29.789062 6.148438 29.625 C 6.167969 29.566406 6.1875 29.542969 6.199219 29.558594 C 6.214844 29.570312 6.210938 29.664062 6.183594 29.816406 C 6 30.9375 5.957031 31.230469 5.914062 31.589844 C 5.890625 31.816406 5.859375 32.105469 5.851562 32.230469 C 5.835938 32.523438 5.804688 32.683594 5.734375 32.890625 C 5.703125 32.984375 5.667969 33.164062 5.652344 33.296875 C 5.636719 33.429688 5.613281 33.605469 5.601562 33.691406 C 5.582031 33.796875 5.578125 34.085938 5.589844 34.609375 C 5.609375 35.488281 5.589844 35.390625 5.917969 36.378906 C 6.03125 36.707031 6.148438 37.082031 6.175781 37.214844 C 6.238281 37.476562 6.242188 37.675781 6.21875 38.773438 C 6.207031 39.234375 6.210938 39.277344 6.261719 39.449219 C 6.339844 39.703125 6.417969 39.832031 6.597656 39.996094 L 6.753906 40.132812 L 6.777344 42.039062 L 6.839844 42.167969 C 6.957031 42.417969 7.179688 42.589844 7.515625 42.707031 C 7.679688 42.761719 7.730469 42.769531 8.03125 42.769531 C 8.324219 42.769531 8.378906 42.761719 8.535156 42.707031 C 8.960938 42.558594 9.21875 42.28125 9.273438 41.90625 C 9.300781 41.695312 9.277344 41.589844 9.0625 41.085938 C 8.640625 40.074219 8.382812 39.242188 7.78125 36.917969 C 7.597656 36.21875 7.414062 35.527344 7.378906 35.382812 C 7.292969 35.085938 7.214844 34.65625 7.214844 34.515625 C 7.214844 34.460938 7.234375 34.359375 7.261719 34.289062 C 7.285156 34.214844 7.308594 34.136719 7.308594 34.109375 C 7.308594 34.027344 7.539062 33.179688 7.609375 32.988281 C 7.652344 32.886719 7.742188 32.589844 7.8125 32.335938 C 7.953125 31.835938 8.152344 31.3125 8.347656 30.941406 C 8.496094 30.652344 8.53125 30.574219 8.761719 29.90625 C 9.089844 28.964844 9.128906 28.871094 9.21875 28.699219 L 9.304688 28.53125 L 9.800781 28.53125 C 10.601562 28.53125 10.894531 28.464844 11.839844 28.074219 C 12.089844 27.972656 12.304688 27.890625 12.316406 27.890625 C 12.332031 27.890625 12.34375 27.910156 12.34375 27.9375 C 12.339844 28.179688 12.371094 29.574219 12.382812 29.664062 C 12.402344 29.808594 12.359375 30.371094 12.308594 30.582031 C 12.289062 30.667969 12.261719 30.800781 12.253906 30.867188 C 12.234375 31.011719 12.214844 31.046875 12.058594 31.265625 C 11.996094 31.351562 11.945312 31.4375 11.945312 31.453125 C 11.945312 31.46875 11.929688 31.488281 11.914062 31.492188 C 11.894531 31.5 11.855469 31.585938 11.824219 31.683594 C 11.777344 31.835938 11.765625 31.910156 11.765625 32.164062 C 11.765625 32.433594 11.773438 32.476562 11.835938 32.644531 C 11.894531 32.796875 11.902344 32.863281 11.90625 33.054688 C 11.910156 33.296875 11.835938 33.984375 11.753906 34.511719 C 11.726562 34.679688 11.695312 34.90625 11.679688 35.015625 C 11.667969 35.121094 11.648438 35.265625 11.636719 35.332031 C 11.621094 35.402344 11.613281 35.542969 11.613281 35.640625 C 11.613281 36.039062 11.417969 37.3125 11.238281 38.097656 C 11.078125 38.777344 11.039062 39.023438 11.039062 39.378906 C 11.039062 39.664062 11.042969 39.6875 11.128906 39.917969 C 11.28125 40.34375 11.253906 40.550781 10.914062 41.515625 C 10.769531 41.929688 10.691406 42.183594 10.691406 42.246094 C 10.691406 42.304688 10.667969 42.410156 10.636719 42.488281 C 10.59375 42.601562 10.582031 42.683594 10.582031 42.863281 C 10.582031 43.085938 10.589844 43.101562 10.675781 43.269531 C 10.828125 43.574219 11.136719 43.792969 11.578125 43.910156 C 11.84375 43.976562 12.394531 43.976562 12.65625 43.910156 C 12.953125 43.832031 13.242188 43.667969 13.359375 43.515625 C 13.402344 43.457031 13.417969 43.402344 13.425781 43.277344 C 13.441406 43.050781 13.417969 42.917969 13.363281 42.917969 C 13.335938 42.917969 13.3125 42.878906 13.273438 42.761719 C 13.25 42.679688 13.167969 42.445312 13.09375 42.242188 C 12.863281 41.589844 12.832031 41.253906 12.976562 40.933594 C 13.019531 40.847656 13.058594 40.738281 13.0625 40.695312 C 13.066406 40.652344 13.082031 40.597656 13.089844 40.574219 C 13.113281 40.527344 13.089844 40.179688 13.054688 40.042969 C 13.003906 39.84375 13.054688 36.328125 13.109375 35.988281 C 13.125 35.882812 13.136719 35.660156 13.132812 35.453125 C 13.125 35.175781 13.132812 35.09375 13.15625 35.0625 C 13.207031 35.007812 13.246094 34.78125 13.246094 34.550781 C 13.246094 34.386719 13.257812 34.324219 13.304688 34.210938 C 13.351562 34.105469 13.363281 34.039062 13.359375 33.886719 C 13.359375 33.445312 13.335938 33.507812 13.585938 33.269531 C 13.78125 33.082031 13.820312 33.027344 13.917969 32.832031 C 14.015625 32.632812 14.023438 32.597656 14.023438 32.4375 C 14.023438 32.292969 14.007812 32.210938 13.917969 31.9375 C 13.804688 31.601562 13.738281 31.457031 13.675781 31.386719 C 13.640625 31.351562 13.640625 31.328125 13.679688 31.136719 C 13.699219 31.019531 13.75 30.796875 13.789062 30.636719 C 13.824219 30.480469 13.886719 30.210938 13.917969 30.042969 C 13.996094 29.660156 14.140625 29.035156 14.167969 28.988281 C 14.21875 28.898438 14.613281 29.941406 14.832031 30.753906 L 14.910156 31.039062 L 14.917969 32.175781 C 14.925781 33.457031 14.925781 33.46875 15.128906 34.246094 C 15.324219 34.988281 15.488281 35.382812 15.71875 35.675781 C 15.78125 35.757812 15.847656 35.839844 15.863281 35.859375 C 15.902344 35.910156 16.03125 36.507812 16.175781 37.261719 C 16.242188 37.605469 16.324219 38.035156 16.367188 38.210938 C 16.519531 38.882812 16.535156 39.03125 16.554688 39.675781 C 16.582031 40.484375 16.628906 40.664062 16.847656 40.898438 C 16.902344 40.953125 17.03125 41.066406 17.136719 41.144531 C 17.238281 41.222656 17.359375 41.324219 17.402344 41.367188 L 17.480469 41.445312 L 17.457031 41.777344 C 17.40625 42.445312 17.425781 42.683594 17.550781 42.941406 C 17.738281 43.335938 18.179688 43.660156 18.695312 43.792969 C 18.945312 43.859375 19.429688 43.867188 19.652344 43.804688 C 20.015625 43.710938 20.28125 43.570312 20.492188 43.363281 C 20.871094 42.996094 20.898438 42.53125 20.570312 42.117188 C 20.523438 42.054688 20.476562 41.988281 20.457031 41.960938 C 20.445312 41.933594 20.324219 41.800781 20.199219 41.671875 C 19.929688 41.394531 19.859375 41.300781 19.820312 41.15625 C 19.777344 41 19.707031 40.882812 19.566406 40.71875 C 19.410156 40.542969 19.371094 40.46875 19.273438 40.136719 C 19.234375 39.996094 19.078125 39.5625 18.929688 39.171875 C 18.78125 38.78125 18.605469 38.3125 18.539062 38.128906 C 18.382812 37.699219 18.296875 37.5 17.96875 36.847656 C 17.664062 36.242188 17.550781 35.964844 17.464844 35.625 C 17.34375 35.113281 17.328125 34.949219 17.324219 33.984375 C 17.320312 33.027344 17.308594 32.917969 17.195312 32.734375 C 17.171875 32.695312 17.140625 32.621094 17.125 32.574219 C 17.105469 32.523438 17.011719 32.324219 16.914062 32.128906 C 16.8125 31.929688 16.714844 31.710938 16.699219 31.632812 C 16.683594 31.558594 16.652344 31.433594 16.632812 31.347656 C 16.59375 31.21875 16.589844 31.035156 16.59375 29.871094 C 16.59375 28.375 16.601562 28.242188 16.742188 27.652344 C 16.84375 27.246094 16.894531 26.84375 16.871094 26.6875 C 16.855469 26.578125 16.957031 26.332031 17.023438 26.316406 C 17.074219 26.304688 17.238281 26.011719 17.324219 25.78125 C 17.398438 25.574219 17.445312 25.375 17.464844 25.132812 L 17.484375 24.957031 L 17.664062 24.828125 C 17.898438 24.65625 18.402344 24.171875 18.582031 23.9375 C 18.773438 23.683594 18.996094 23.316406 19.113281 23.054688 C 19.167969 22.933594 19.21875 22.832031 19.226562 22.824219 C 19.304688 22.761719 19.707031 21.761719 19.761719 21.496094 C 19.769531 21.453125 19.835938 21.238281 19.90625 21.015625 C 20.152344 20.25 20.390625 19.382812 20.480469 18.917969 C 20.496094 18.84375 20.515625 18.742188 20.53125 18.699219 C 20.542969 18.65625 20.5625 18.527344 20.574219 18.414062 C 20.613281 18.140625 20.703125 17.707031 20.804688 17.324219 C 20.902344 16.9375 21.113281 16.292969 21.144531 16.292969 C 21.195312 16.292969 21.390625 15.730469 21.863281 14.203125 C 22.398438 12.484375 22.519531 12.152344 22.871094 11.4375 C 22.996094 11.179688 23.105469 10.910156 23.210938 10.589844 C 23.394531 10.03125 23.507812 9.800781 23.875 9.238281 C 24.027344 9.003906 24.265625 8.597656 24.402344 8.332031 C 24.8125 7.542969 24.902344 7.429688 25.527344 6.949219 L 25.851562 6.699219 L 26.222656 6.867188 C 26.59375 7.03125 27.027344 7.199219 27.089844 7.199219 C 27.105469 7.199219 27.160156 7.222656 27.203125 7.25 C 27.25 7.28125 27.308594 7.3125 27.34375 7.320312 C 27.375 7.328125 27.507812 7.367188 27.640625 7.410156 C 27.769531 7.457031 28.0625 7.53125 28.289062 7.574219 C 28.515625 7.621094 28.75 7.671875 28.808594 7.691406 C 28.867188 7.710938 28.972656 7.738281 29.042969 7.753906 C 29.113281 7.765625 29.179688 7.78125 29.1875 7.792969 C 29.210938 7.828125 29.425781 7.957031 29.742188 8.125 C 29.925781 8.222656 30.109375 8.328125 30.148438 8.359375 C 30.191406 8.390625 30.261719 8.429688 30.304688 8.445312 C 30.410156 8.488281 30.902344 8.597656 31.085938 8.617188 C 31.273438 8.636719 31.554688 8.609375 31.589844 8.5625 C 31.601562 8.542969 31.640625 8.527344 31.679688 8.527344 C 31.78125 8.527344 31.882812 8.464844 31.882812 8.402344 C 31.882812 8.375 31.898438 8.320312 31.917969 8.28125 C 31.9375 8.242188 31.964844 8.152344 31.976562 8.078125 C 32.035156 7.792969 31.941406 6.941406 31.828125 6.726562 C 31.761719 6.597656 31.613281 6.449219 31.335938 6.246094 C 31.015625 6.007812 30.964844 5.953125 30.699219 5.46875 C 30.667969 5.410156 30.542969 5.257812 30.425781 5.136719 C 30.148438 4.847656 29.976562 4.640625 29.929688 4.519531 C 29.890625 4.433594 29.890625 4.421875 29.929688 4.367188 C 29.984375 4.289062 29.976562 4.257812 29.886719 4.15625 C 29.84375 4.105469 29.792969 4.023438 29.765625 3.972656 C 29.742188 3.917969 29.714844 3.875 29.699219 3.875 C 29.664062 3.875 29.636719 3.761719 29.648438 3.660156 C 29.664062 3.566406 29.671875 3.558594 29.808594 3.492188 C 30.113281 3.347656 30.273438 3.175781 30.308594 2.949219 C 30.320312 2.875 30.316406 2.847656 30.28125 2.816406 C 30.242188 2.78125 30.210938 2.78125 29.96875 2.804688 C 29.652344 2.835938 29.347656 2.804688 29.070312 2.714844 C 28.828125 2.636719 28.78125 2.601562 28.738281 2.453125 C 28.695312 2.300781 28.691406 2.054688 28.730469 2.015625 C 28.765625 1.980469 28.769531 1.707031 28.734375 1.6875 C 28.699219 1.664062 28.730469 1.496094 28.808594 1.246094 C 28.878906 1.027344 28.890625 0.890625 28.855469 0.679688 C 28.832031 0.546875 28.761719 0.476562 28.609375 0.4375 C 28.554688 0.421875 28.480469 0.394531 28.445312 0.378906 C 28.339844 0.320312 28.132812 0.308594 28.0625 0.355469 C 28.03125 0.378906 27.976562 0.394531 27.9375 0.394531 C 27.695312 0.394531 27.523438 0.628906 27.644531 0.800781 C 27.671875 0.839844 27.699219 0.941406 27.714844 1.085938 C 27.769531 1.515625 27.746094 1.640625 27.605469 1.722656 C 27.523438 1.769531 27.519531 1.769531 27.488281 1.730469 C 27.457031 1.683594 27.457031 1.695312 27.453125 1.207031 C 27.453125 1.015625 27.464844 0.789062 27.484375 0.703125 C 27.507812 0.5625 27.507812 0.53125 27.472656 0.453125 C 27.453125 0.402344 27.4375 0.347656 27.4375 0.324219 C 27.4375 0.253906 27.304688 0.167969 27.179688 0.152344 C 27.117188 0.144531 27.015625 0.109375 26.953125 0.0820312 C 26.832031 0.0273438 26.75 0.015625 26.617188 0.046875 Z M 23.878906 3.429688 C 23.921875 3.464844 23.921875 3.464844 23.863281 3.4375 C 23.789062 3.40625 23.78125 3.394531 23.808594 3.394531 C 23.820312 3.394531 23.851562 3.410156 23.878906 3.429688 Z M 24.359375 4.023438 C 24.390625 4.054688 24.410156 4.082031 24.402344 4.082031 C 24.398438 4.082031 24.367188 4.054688 24.335938 4.023438 C 24.304688 3.992188 24.285156 3.96875 24.292969 3.96875 C 24.300781 3.96875 24.332031 3.992188 24.359375 4.023438 Z M 24.359375 4.023438 "/>
</g>
</svg>
